<svg t="1691119213564" class="icon" viewBox="0 0 1024 1024" version="1.1" xmlns="http://www.w3.org/2000/svg" p-id="84288" width="200" height="200"><path d="M574.9 894.2H222.8V286h63.4l-0.1 31.3c0 8.5 3.3 16.6 9.3 22.7 6 6 14.1 9.4 22.6 9.5l92.2 0.3 277 1h14.9c8.5 0 16.6-3.4 22.6-9.3 6-6 9.4-14.2 9.4-22.7V286h64.8v352c0 17.7 14.3 32 32 32s32-14.3 32-32V254c0.1-17.7-14.3-32.1-31.9-32.1h-96.8v-96c0-17.7-14.3-32-32-32H318.9c-17.6 0-31.9 14.3-32 31.9l-0.4 96.1h-95.7c-17.7 0-32 14.3-32 32v672.3c0 17.7 14.3 32 32 32h384.1c17.7 0 32-14.3 32-32s-14.3-32-32-32zM350.7 158h319.4v128.6l-319.9-1.1 0.5-127.5z" p-id="84289" fill="#1296db"></path><path d="M773.1 445.9c-0.1-10.2-5-19.3-12.6-25.1-5.4-4.1-12.1-6.6-19.4-6.6H356.3c-17.7 0-32 14.3-32 32s14.3 32 32 32h384.8c17.7 0 32-14.3 32-32v-0.3zM741.1 606c17.7 0 32-14.3 32-32s-14.3-32-32-32H356.4c-17.7 0-32.1 14.4-32.1 32 0 17.7 14.3 32 32 32h384.8z" p-id="84290" fill="#1296db"></path><path d="M833.9 738.2h-42.2v-18.5c0-8.3-6.7-15-15-15s-15 6.7-15 15v18.5h-45V719c0-8.3-6.7-15-15-15s-15 6.7-15 15v19.2h-39.5c-8.3 0-15 6.7-15 15V908c0 8.3 6.7 15 15 15H834c8.3 0 15-6.7 15-15V753.2c-0.1-8.3-6.8-15-15.1-15z m-15 154.7H662.1V768.2h24.5v20c0 8.3 6.7 15 15 15s15-6.7 15-15v-20h45v20.7c0 8.3 6.7 15 15 15s15-6.7 15-15v-20.7h27.2v124.7z" p-id="84291" fill="#1296db"></path><path d="M784 811.5l-52.1 38.6-25.4-15.6c-7.1-4.3-16.3-2.1-20.6 5-4.3 7.1-2.1 16.3 5 20.6l34 20.8c2.4 1.5 5.1 2.2 7.8 2.2 3.1 0 6.3-1 8.9-2.9l60.3-44.6c6.7-4.9 8.1-14.3 3.1-21-4.9-6.6-14.3-8-21-3.1z" p-id="84292" fill="#1296db"></path></svg>