<svg t="1691110948087" class="icon" viewBox="0 0 1024 1024" version="1.1" xmlns="http://www.w3.org/2000/svg" p-id="2475" width="200" height="200"><path d="M512 512m-460.8 0a460.8 460.8 0 1 0 921.6 0 460.8 460.8 0 1 0-921.6 0Z" fill="#0cc3dd" p-id="2476"></path><path d="M732.6208 505.18528V819.2H298.16832V505.18528H209.92L512 204.8l302.08 300.38528h-81.4592zM293.15072 471.04h38.95808v314.01472h366.592V471.04h32.17408L512 254.29504z m300.30848 215.04h81.4592v81.92h-81.4592v-81.92z m-118.784 0h81.4592v81.92H474.66496v-81.92z m0-116.05504h81.4592v81.92H474.66496v-81.92zM355.87072 686.08h81.4592v81.92h-81.4592v-81.92z m0-116.05504h81.4592v81.92h-81.4592v-81.92z m0-116.04992h81.4592v81.92h-81.4592v-81.92z" fill="#ffffff" p-id="2477"></path></svg>