<svg t="1691114492753" class="icon" viewBox="0 0 1024 1024" version="1.1" xmlns="http://www.w3.org/2000/svg" p-id="63777" width="200" height="200"><path d="M512 512m-460.8 0a460.8 460.8 0 1 0 921.6 0 460.8 460.8 0 1 0-921.6 0Z" fill="#0cc3dd" p-id="63778"></path><path d="M544.37888 629.84192v-5.632c0-31.17056 15.31904-60.12928 40.67328-77.0048 52.16256-34.7136 80.54784-75.53024 80.54784-122.59328C665.6 337.14176 596.84864 266.24 512 266.24s-153.6 70.90176-153.6 158.37184c0 18.41152 14.4384 33.3824 32.37888 33.3824 17.83808 0 32.3584-14.86848 32.3584-33.3824 0-50.66752 39.81312-91.70944 88.96512-91.70944 49.152 0 88.94464 41.04192 88.94464 91.70944 0 20.72576-15.42144 42.94656-50.91328 66.56-43.78624 29.16352-70.30784 79.2576-70.30784 133.03808v5.632c0 18.41152 14.41792 33.3824 32.27648 33.3824 17.73568-0.08192 32.17408-14.97088 32.27648-33.3824z m-68.21888 111.8208c0 20.23424 16.09728 36.57728 35.84 36.57728 19.82464 0 35.84-16.42496 35.84-36.5568 0-20.23424-16.01536-36.57728-35.84-36.6592-19.82464 0-35.84 16.42496-35.84 36.6592z" fill="#FFFFFF" p-id="63779"></path></svg>