<svg t="1691111504626" class="icon" viewBox="0 0 1024 1024" version="1.1" xmlns="http://www.w3.org/2000/svg" p-id="32861" width="200" height="200"><path d="M512 512m-460.8 0a460.8 460.8 0 1 0 921.6 0 460.8 460.8 0 1 0-921.6 0Z" fill="#0cc3dd" p-id="32862"></path><path d="M626.399 429.017c0-31.575-25.59-57.147-57.147-57.147-31.542 0-57.134 25.573-57.134 57.147 0 31.542 25.592 57.121 57.134 57.121 31.561 0 57.147-25.578 57.147-57.121z" fill="#FFFFFF" p-id="32863"></path><path d="M298.877 559.276h-43.44c-8.719 0-15.799 7.063-15.799 15.787v24.409c0 8.706 7.08 15.786 15.799 15.786h43.44c21.756 0.055 39.391 17.674 39.433 39.435v20.479c-0.042 21.759-17.676 39.379-39.433 39.433h-40.963a15.889 15.889 0 0 0-15.69 18.855c13.459 75.191 78.752 130.022 155.137 130.258h287.133c87.035-0.208 157.558-70.688 157.82-157.724V476.28c-108.751-12.432-190.91-104.438-191.035-213.899a214.448 214.448 0 0 1 24.314-99.438H397.36c-70.443 0.246-132.229 47.084-151.494 114.842a15.863 15.863 0 0 0 2.725 13.772 15.954 15.954 0 0 0 12.584 6.243h37.609c21.754 0.042 39.389 17.662 39.432 39.432v20.481c-0.042 21.742-17.677 39.377-39.432 39.432h-43.347a15.752 15.752 0 0 0-11.174 4.629 15.78 15.78 0 0 0-4.627 11.156v31.204c0 8.717 7.079 15.798 15.8 15.798h43.439c21.756 0.04 39.391 17.662 39.434 39.435v20.479c-0.041 21.741-17.674 39.374-39.432 39.43z m102.988 83.448c11.704-60.091 54.808-109.255 112.842-128.725-37.803-24.206-55.108-70.441-42.498-113.515 12.609-43.072 52.121-72.671 97.002-72.671 44.879 0 84.395 29.6 97.005 72.671 12.609 43.074-4.696 89.309-42.496 113.515 58.212 19.511 101.396 68.908 112.938 129.205 2.204 11.994-5.708 23.521-17.704 25.737h-0.096c-1.271 0.108-2.56 0.108-3.833 0-10.542-0.025-19.564-7.529-21.535-17.88-11.394-59.598-63.52-102.695-124.182-102.695-60.666 0-112.786 43.099-124.181 102.695a21.91 21.91 0 0 1-9.252 14.048 21.87 21.87 0 0 1-16.503 3.37 21.916 21.916 0 0 1-14.113-9.229 21.88 21.88 0 0 1-3.394-16.526z" fill="#FFFFFF" p-id="32864"></path><path d="M633.193 429.017c0-35.104-28.453-63.553-63.555-63.553-35.094 0-63.545 28.45-63.545 63.553 0.056 35.077 28.465 63.488 63.545 63.54 35.102 0 63.555-28.449 63.555-63.54z" fill="#FFFFFF" p-id="32865"></path><path d="M231.985 701.779h57.421c19.4 0 35.132-15.722 35.132-35.119 0-19.402-15.734-35.138-35.132-35.138h-57.421c-19.402 0-35.132 15.734-35.132 35.138-0.001 19.399 15.73 35.119 35.132 35.119zM289.406 314.257h-57.421c-19.402 0-35.132 15.719-35.132 35.118 0 19.402 15.732 35.132 35.132 35.132h57.421c19.4 0 35.132-15.73 35.132-35.132 0.001-19.4-15.731-35.118-35.132-35.118zM289.406 475.706h-57.421a35.125 35.125 0 0 0-30.422 17.578 35.136 35.136 0 0 0 0 35.119 35.123 35.123 0 0 0 30.422 17.566h57.421c19.4 0 35.132-15.73 35.132-35.135 0.001-19.385-15.731-35.128-35.132-35.128z" fill="#FFFFFF" p-id="32866"></path><path d="M842.313 476.473v-155.81c-0.262-87.035-70.784-157.516-157.818-157.721h-8.901c-32.764 62.938-32.431 137.98 0.878 200.631 33.308 62.652 95.344 104.874 165.841 112.9z" fill="#FFFFFF" opacity=".4" p-id="32867"></path></svg>