<svg t="1691112896806" class="icon" viewBox="0 0 1024 1024" version="1.1" xmlns="http://www.w3.org/2000/svg" p-id="46356" width="200" height="200"><path d="M512 512m-460.8 0a460.8 460.8 0 1 0 921.6 0 460.8 460.8 0 1 0-921.6 0Z" fill="#0cc3dd" p-id="46357"></path><path d="M381.090133 288c23.68 0 46.72 8.96 63.36 26.24 24.96 26.24 33.28 63.36 21.12 96l145.92 146.56c10.24-3.84 20.48-5.12 31.36-5.12 23.68 0 46.72 8.32 64.64 26.24 29.44 28.8 34.56 72.32 17.28 106.88-2.56 5.76-7.04 8.32-12.16 8.32-3.84 0-7.04-1.28-9.6-3.84l-44.8-44.8-16 16 44.8 44.8c7.04 6.4 4.48 17.28-3.84 21.12-13.44 7.04-26.24 9.6-40.96 9.6-23.68 0-46.72-8.32-64.64-26.24-24.96-26.24-33.28-63.36-21.12-96L409.890133 467.2c-8.96 3.84-19.2 5.12-30.08 5.12-23.68 0-46.72-8.32-64.64-26.24-29.44-28.8-34.56-72.32-17.28-106.88 2.56-5.76 7.04-8.32 12.16-8.32 3.84 0 7.04 1.28 9.6 3.84l45.44 44.8 16-16-44.8-44.8c-7.04-6.4-4.48-17.28 3.84-21.12 13.44-7.04 26.24-9.6 40.96-9.6z m40.96 250.88c8.32 0 14.08 2.56 16.64 7.68l37.12 37.12c10.88 10.88 10.88 26.24 0 37.12l-94.72 94.72c-4.48 5.76-12.16 8.32-17.92 8.32s-12.8-3.2-17.92-8.32l-37.12-37.12c-10.88-10.88-10.88-26.24 0-37.12l96-94.08c4.48-5.76 11.52-8.32 17.92-8.32zM685.730133 288c4.48 0 8.32 1.28 10.24 3.84l37.12 37.12c2.56 2.56 3.84 6.4 3.84 9.6 0 3.84-1.28 7.04-3.84 9.6l-64 64.64c-2.56 1.92-6.4 3.84-9.6 3.84-3.84 0-7.04-1.28-9.6-3.84l-9.6-9.6-64.64 65.28c-2.56 1.92-6.4 3.84-9.6 3.84-3.84 0-7.04-1.28-9.6-3.84s-3.84-5.76-3.84-9.6 1.28-7.04 3.84-9.6l65.28-64-9.6-9.6c-2.56-2.56-3.84-5.76-3.84-9.6s1.28-7.04 3.84-9.6l64-64.64c2.56-2.56 5.76-3.84 9.6-3.84z" fill="#FFFFFF" p-id="46358"></path></svg>