<svg t="1691025236855" class="icon" viewBox="0 0 1024 1024" version="1.1" xmlns="http://www.w3.org/2000/svg" p-id="4860" id="mx_n_1691025236856" width="200" height="200"><path d="M361.699556 910.222222H91.022222V113.777778h757.76v323.925333H796.444444V166.115556H143.36v691.768888h218.339556V910.222222z" fill="#2c2c2c" p-id="4861"></path><path d="M242.346667 544.085333h113.777777v52.337778h-113.777777zM242.346667 402.773333h295.822222V455.111111h-295.822222zM242.346667 271.587556h455.111111v52.337777h-455.111111zM625.777778 598.471111c101.603556 0 193.422222 82.716444 238.023111 129.706667C819.2 775.168 727.267556 857.884444 625.777778 857.884444S432.355556 775.168 387.754667 728.177778C432.355556 681.187556 524.288 598.471111 625.777778 598.471111m0-52.337778c-169.642667 0-307.2 182.044444-307.2 182.044445s137.557333 182.044444 307.2 182.044444 307.2-182.044444 307.2-182.044444-137.557333-182.044444-307.2-182.044445z" fill="#2c2c2c" p-id="4862"></path><path d="M625.777778 689.493333a38.684444 38.684444 0 1 1-38.684445 38.684445 38.798222 38.798222 0 0 1 38.684445-38.684445m0-52.337777a91.022222 91.022222 0 1 0 91.022222 91.022222 91.022222 91.022222 0 0 0-91.022222-91.022222z" fill="#2c2c2c" p-id="4863"></path></svg>