<svg t="1691032295077" class="icon" viewBox="0 0 1024 1024" version="1.1" xmlns="http://www.w3.org/2000/svg" p-id="8628" width="200" height="200"><path d="M531.7 479.8c58.1-1 112.6-24.1 153.8-65.3 42.1-42.1 65.3-98.2 65.3-157.7S727.6 141.1 685.5 99c-42.1-42.1-98.2-65.3-157.7-65.3-59.7 0-115.7 23.2-157.8 65.3-42.1 42.1-65.3 98.2-65.3 157.7s23.2 115.6 65.3 157.7c12 12 25.2 22.5 39.2 31.3-21 5.6-41.5 12.7-61.7 21.2-56.4 23.8-107 58-150.4 101.4-43.5 43.5-77.6 94.1-101.4 150.4C71 777.2 58.4 839.2 58.4 903.1h50c0-233.4 189.9-423.3 423.3-423.3zM354.6 256.7c0-95.4 77.6-173.1 173.1-173.1s173.1 77.6 173.1 173.1-77.6 173.1-173.1 173.1-173.1-77.6-173.1-173.1zM661 576.2c0 13.8 11.2 25 25 25h192.9c13.8 0 25-11.2 25-25s-11.2-25-25-25H686c-13.8 0-25 11.2-25 25zM878.9 708.9H551.3c-13.8 0-25 11.2-25 25s11.2 25 25 25h327.5c13.8 0 25-11.2 25-25s-11.1-25-24.9-25zM878.9 881.3H551.3c-13.8 0-25 11.2-25 25s11.2 25 25 25h327.5c13.8 0 25-11.2 25-25s-11.1-25-24.9-25z" p-id="8629"></path></svg>