<svg t="1691141166416" class="icon" viewBox="0 0 1024 1024" version="1.1" xmlns="http://www.w3.org/2000/svg" p-id="2207" width="200" height="200"><path d="M336.457143 336.457143m-336.457143 0a336.457143 336.457143 0 1 0 672.914286 0 336.457143 336.457143 0 1 0-672.914286 0Z" fill="#8a8a8a" p-id="2208"></path><path d="M512 1024C229.668571 1024 0 794.331429 0 512S229.668571 0 512 0s512 229.668571 512 512-229.668571 512-512 512z m0-950.857143C269.165714 73.142857 73.142857 269.165714 73.142857 512s196.022857 438.857143 438.857143 438.857143 438.857143-196.022857 438.857143-438.857143S754.834286 73.142857 512 73.142857z" fill="#8a8a8a" p-id="2209"></path><path d="M665.6 555.885714H555.885714v124.342857c0 20.48-16.091429 36.571429-36.571428 36.571429S482.742857 700.708571 482.742857 680.228571V555.885714h-124.342857c-20.48 0-36.571429-16.091429-36.571429-36.571428s16.091429-36.571429 36.571429-36.571429H482.742857v-109.714286c0-20.48 16.091429-36.571429 36.571429-36.571428s36.571429 16.091429 36.571428 36.571428V482.742857h109.714286c20.48 0 36.571429 16.091429 36.571429 36.571429S686.08 555.885714 665.6 555.885714z" fill="#8a8a8a" p-id="2210"></path></svg>